<svg width="16" height="20" viewBox="0 0 16 20" fill="none" xmlns="http://www.w3.org/2000/svg">
    <path d="M7.99969 0C3.94005 0 0.636902 3.30314 0.636902 7.3632C0.636902 8.42222 0.853659 9.43334 1.28083 10.3687C3.12173 14.3971 6.65125 18.6501 7.68939 19.8575C7.76717 19.9478 7.88056 19.9998 7.99989 19.9998C8.11922 19.9998 8.23262 19.9478 8.3104 19.8575C9.34813 18.6503 12.8776 14.3975 14.7192 10.3687C15.1465 9.43334 15.3631 8.42222 15.3631 7.3632C15.3627 3.30314 12.0595 0 7.99969 0ZM7.99969 11.1877C5.89086 11.1877 4.17502 9.47182 4.17502 7.36299C4.17502 5.25396 5.89086 3.53812 7.99969 3.53812C10.1085 3.53812 11.8244 5.25396 11.8244 7.36299C11.8246 9.47182 10.1087 11.1877 7.99969 11.1877Z" fill="#100E3B"/>
</svg>
