<svg width="20" height="20" viewBox="0 0 20 20" fill="none" xmlns="http://www.w3.org/2000/svg">
<path d="M19.7489 9.38912L10.7109 0.678264C10.5211 0.495322 10.2686 0.394531 10.0002 0.394531C9.73153 0.394531 9.47901 0.495231 9.28928 0.678264L0.251179 9.38912C-0.0515543 9.68081 -0.0161782 9.93161 0.0317741 10.0507C0.0798169 10.1697 0.223131 10.3768 0.643483 10.3768H1.66116V18.1189C1.66116 18.9247 2.35565 19.6054 3.14207 19.6054H7.72305V14.3578H12.1564V19.6054H16.858C17.6469 19.6054 18.3087 18.9107 18.3087 18.1189V10.3768H19.3566C19.7769 10.3768 19.9201 10.1697 19.9683 10.0507C20.0162 9.93161 20.0517 9.6809 19.7489 9.38912Z" fill="#100E3B"/>
</svg>
