<svg width="7" height="5" viewBox="0 0 7 5" fill="none" xmlns="http://www.w3.org/2000/svg">
  <path d="M3.0956 0.460235L0.170712 3.38949C0.0568882 3.49736 -4.69454e-08 3.63207 -3.98727e-08 3.79387C-3.27999e-08 3.95568 0.0569512 4.09039 0.170712 4.19826L0.50773 4.53972C0.618564 4.65057 0.753286 4.70599 0.912038 4.70599C1.06778 4.70599 1.20411 4.65058 1.32089 4.53972L3.50001 2.3562L5.68361 4.53981C5.79444 4.65063 5.92916 4.70605 6.08793 4.70605C6.24366 4.70605 6.38003 4.65065 6.49677 4.53981L6.83374 4.19832C6.94457 4.08749 6.99998 3.95264 6.99998 3.79394C6.99998 3.63517 6.94457 3.50035 6.83374 3.38955L3.90885 0.460234C3.79203 0.349354 3.65574 0.293881 3.49999 0.293881C3.34124 0.293865 3.20644 0.349354 3.0956 0.460235Z" fill="black"/>
</svg>
