<svg width="15" height="11" viewBox="0 0 15 11" fill="none" xmlns="http://www.w3.org/2000/svg">
    <path d="M11.6023 0H2.99322C1.34272 0 0 1.34272 0 2.99322V7.80933C0 9.45983 1.34272 10.8026 2.99322 10.8026H3.43742H4.47848H4.80116H5.15017H6.19123H11.6023C13.2528 10.8026 14.5955 9.45983 14.5955 7.80933V2.99322C14.5955 1.34272 13.2528 0 11.6023 0Z" fill="#41479B"/>
    <path d="M14.5955 3.51359H11.0002L13.6765 0.837278C13.1381 0.319144 12.4068 0 11.6023 0H10.8855L9.18612 1.69939V0H5.40952V1.69939L3.71013 0H2.99322C2.18868 0 1.45741 0.319144 0.919013 0.837278L3.59532 3.51359H0V7.29019H3.59532L1.01946 9.86594L0.91957 9.96583C1.45797 10.4837 2.18902 10.8026 2.99322 10.8026H3.43742H3.71124L5.36364 9.15004L5.33435 10.8026H9.18601V9.10906L10.8739 10.8026H11.6023C12.4031 10.8026 13.1313 10.4865 13.6689 9.97262L13.5683 9.87151L10.9955 7.29019H14.5955V3.51359Z" fill="white"/>
    <path d="M8.3308 4.36879V0H6.26472V4.36879H0V6.43498H6.26472L6.19123 10.8026H8.3308V6.43498H14.5955V4.36879H8.3308Z" fill="#FF337A"/>
    <path d="M5.6945 3.79849V3.19383L2.53558 0.0349121C2.21165 0.0847992 1.90465 0.186912 1.62347 0.33223L5.08984 3.79849H5.6945Z" fill="#FF337A"/>
    <path d="M12.9721 0.33223C12.6909 0.186912 12.3839 0.0847992 12.06 0.0349121L8.90106 3.19383V3.79849H9.50572L12.9721 0.33223Z" fill="#FF337A"/>
    <path d="M1.62421 10.4707C1.90549 10.6159 2.2125 10.7179 2.53654 10.7678L5.69446 7.60978V7.00513H5.0898L1.62421 10.4707Z" fill="#FF337A"/>
    <path d="M8.90106 7.00513V7.61157L12.0482 10.7694C12.3728 10.7206 12.6806 10.6197 12.9625 10.4753L9.50405 7.00513H8.90106Z" fill="#FF337A"/>
</svg>
